Coordinates
version=1
nRows=29
nColumns=24
inDegrees=yes

Units are S.I. units (second, meters, Newtons, ...)
Angles are in degrees.

endheader
time	pelvis_tilt	pelvis_list	pelvis_rotation	pelvis_tx	pelvis_ty	pelvis_tz	hip_flexion_r	hip_adduction_r	hip_rotation_r	knee_angle_r	ankle_angle_r	subtalar_angle_r	mtp_angle_r	hip_flexion_l	hip_adduction_l	hip_rotation_l	knee_angle_l	ankle_angle_l	subtalar_angle_l	mtp_angle_l	lumbar_extension	lumbar_bending	lumbar_rotation
      0.94666667	      1.97934728	     -5.88903810	      3.11058720	     -0.34193302	      1.00031702	      0.33748719	      8.90842871	     12.09375896	     -1.35064625	    -18.25383056	      6.05070944	    -14.37643233	     -3.05829484	     13.38716671	     -7.54427314	      2.07726712	    -72.14762126	     -4.87581752	     -9.14027879	      4.34783731	     -1.39086908	     10.01009955	      0.13939478
      0.95083333	      1.98211268	     -5.79710475	      2.92598497	     -0.33726270	      1.00105314	      0.33784416	      8.39508195	     12.03077128	     -1.18846917	    -17.91551828	      6.14019832	    -14.22830297	     -3.06140556	     14.04816477	     -7.41016739	      2.02486216	    -72.23250590	     -4.31727236	     -9.34732303	      4.27145244	     -1.45771999	      9.90314744	      0.25772470
      0.95500000	      2.02480696	     -5.68526619	      2.73823383	     -0.33257585	      1.00185244	      0.33819453	      7.82139619	     11.94477243	     -1.01294492	    -17.54507236	      6.23890659	    -13.96523770	     -3.06915306	     14.63906684	     -7.25544252	      1.97128949	    -72.24549497	     -3.77677438	     -9.41104111	      4.06172287	     -1.57902497	      9.79328100	      0.61706789
      0.95916667	      2.05263263	     -5.58010995	      2.54081792	     -0.32791289	      1.00257911	      0.33853862	      7.27470667	     11.86077221	     -0.83583240	    -17.19329625	      6.33179515	    -13.74865614	     -3.07170197	     15.23943676	     -7.11001602	      1.90752791	    -72.22243496	     -3.24179083	     -9.50549505	      3.84205314	     -1.68569423	      9.68870646	      0.85879653
      0.96333333	      2.03736842	     -5.47702212	      2.35965374	     -0.32325086	      1.00322071	      0.33883951	      6.77788432	     11.77155286	     -0.67972619	    -16.84173593	      6.42223523	    -13.61959725	     -3.06805376	     15.88103484	     -6.95248514	      1.86845871	    -72.15194096	     -2.75587439	     -9.66110501	      3.80023324	     -1.71738779	      9.58716253	      0.93013274
      0.96750000	      2.09212439	     -5.37487455	      2.14325770	     -0.31860930	      1.00391994	      0.33921059	      6.20372948	     11.68633964	     -0.49303427	    -16.48622212	      6.49622579	    -13.34122380	     -3.05700079	     16.42393642	     -6.82982878	      1.77477058	    -72.03406061	     -2.22560756	     -9.63345969	      3.62006341	     -1.87054092	      9.47196793	      1.29276699
      0.97166667	      2.06983339	     -5.27555575	      1.92666608	     -0.31400310	      1.00446714	      0.33954732	      5.73023386	     11.59695007	     -0.30685658	    -16.15944048	      6.56685382	    -13.16096655	     -3.04650711	     17.04948243	     -6.69323502	      1.69863668	    -71.88240237	     -1.73944918	     -9.71413323	      3.53303223	     -1.92619401	      9.36817733	      1.43607177
      0.97583333	      2.07854217	     -5.16338544	      1.71111314	     -0.30937895	      1.00504560	      0.33986989	      5.21523293	     11.48891898	     -0.12762322	    -15.81626889	      6.64054176	    -12.93575106	     -3.03031894	     17.61873467	     -6.54622546	      1.61905639	    -71.66941356	     -1.26959130	     -9.70065698	      3.43222162	     -2.01299748	      9.24930555	      1.66809423
      0.98000000	      2.11465386	     -5.06983497	      1.51913042	     -0.30473949	      1.00563272	      0.34015156	      4.66025603	     11.39465929	      0.02067524	    -15.44366018	      6.72257070	    -12.68332548	     -3.00073425	     18.14995788	     -6.41661282	      1.56697017	    -71.40962817	     -0.84035498	     -9.63474728	      3.27063393	     -2.11539394	      9.16317753	      1.98453153
      0.98416667	      2.09130747	     -4.97643389	      1.30338617	     -0.30013705	      1.00608796	      0.34045740	      4.18818184	     11.29844984	      0.19160653	    -15.10562662	      6.79349470	    -12.46515400	     -2.96273870	     18.73751747	     -6.29166714	      1.49615672	    -71.11984496	     -0.40954279	     -9.57632298	      3.10404746	     -2.15832790	      9.06483300	      2.22823768
      0.98833333	      2.08361913	     -4.86615995	      1.07906731	     -0.29553696	      1.00655343	      0.34075515	      3.69913033	     11.18098584	      0.37663091	    -14.76834493	      6.85228773	    -12.28703181	     -2.94235369	     19.28476844	     -6.14996815	      1.41095923	    -70.77027370	     -0.00801791	     -9.56356896	      3.04446623	     -2.21253250	      8.95114007	      2.34061050
      0.99250000	      2.09229737	     -4.79222933	      0.88339740	     -0.29095075	      1.00695964	      0.34102958	      3.19064495	     11.09990043	      0.52901946	    -14.41444085	      6.91830514	    -12.04836840	     -2.89919428	     19.82036759	     -6.04775332	      1.36769328	    -70.40346748	      0.38886790	     -9.38874752	      2.92641015	     -2.29859203	      8.87446951	      2.63805675
      0.99666667	      2.07592916	     -4.69150898	      0.65619845	     -0.28636262	      1.00734231	      0.34132232	      2.71579475	     10.98734254	      0.71293265	    -14.07921214	      6.97195148	    -11.87263630	     -2.87681042	     20.35270242	     -5.91965231	      1.28656906	    -69.97372595	      0.75067937	     -9.33369398	      2.88273534	     -2.34119073	      8.75780710	      2.75445602
      1.00083333	      2.07866984	     -4.59985994	      0.45222457	     -0.28179647	      1.00769034	      0.34156258	      2.22813840	     10.87602831	      0.85759043	    -13.74950308	      7.04240719	    -11.60833739	     -2.76576674	     20.85882976	     -5.79249488	      1.24255575	    -69.50981866	      1.12232318	     -9.16210967	      2.64853284	     -2.43064814	      8.67507096	      3.15384120
      1.00500000	      2.08507244	     -4.52535861	      0.25209281	     -0.27722229	      1.00801456	      0.34181712	      1.72423119	     10.78641903	      1.02841302	    -13.39131715	      7.08229561	    -11.41367899	     -2.71728856	     21.35078286	     -5.69478750	      1.19554311	    -69.00906493	      1.46421846	     -8.93081326	      2.57511137	     -2.49829589	      8.59964294	      3.28307059
      1.00916667	      2.05561014	     -4.43819777	      0.03592023	     -0.27266230	      1.00824775	      0.34207735	      1.27508127	     10.68048918	      1.21621404	    -13.06717103	      7.12567805	    -11.23439729	     -2.68029001	     21.86418046	     -5.58429809	      1.13600162	    -68.46561568	      1.79421685	     -8.74724736	      2.53214768	     -2.53094704	      8.51194042	      3.43191962
      1.01333333	      2.03826322	     -4.36342081	     -0.16775861	     -0.26811306	      1.00846581	      0.34231707	      0.80955691	     10.58387388	      1.38776746	    -12.72755409	      7.16887053	    -11.04689822	     -2.64222930	     22.35448253	     -5.48397960	      1.09762592	    -67.88670536	      2.11379904	     -8.52040908	      2.49572700	     -2.57888323	      8.43058480	      3.61576881
      1.01750000	      2.04673606	     -4.29311644	     -0.35948777	     -0.26355707	      1.00868177	      0.34253942	      0.31598514	     10.48993782	      1.54967325	    -12.38656580	      7.21586913	    -10.86248586	     -2.59848336	     22.80180190	     -5.38870104	      1.06685278	    -67.26648115	      2.42234758	     -8.26462052	      2.45910061	     -2.65346407	      8.36168034	      3.82286833
      1.02166667	      2.05385116	     -4.24137402	     -0.53202265	     -0.25900721	      1.00884420	      0.34273816	     -0.17776707	     10.41370589	      1.69461142	    -12.03556701	      7.26727314	    -10.68668748	     -2.53514879	     23.24632087	     -5.30875945	      1.06258451	    -66.62034103	      2.71919696	     -7.99213908	      2.40926968	     -2.72683702	      8.30361749	      4.06744297
      1.02583333	      2.02759627	     -4.16814684	     -0.73037875	     -0.25447091	      1.00893742	      0.34295437	     -0.61816622	     10.31227387	      1.87315246	    -11.72145947	      7.30845579	    -10.52590888	     -2.49598687	     23.70181700	     -5.21219199	      1.03194021	    -65.92268581	      2.98992916	     -7.75469848	      2.38721862	     -2.76042265	      8.22651656	      4.19493990
      1.03000000	      2.01301514	     -4.09960848	     -0.91011502	     -0.24992381	      1.00900404	      0.34315376	     -1.07316418	     10.21376427	      2.02752449	    -11.40074632	      7.35681268	    -10.35652909	     -2.45328730	     24.13247998	     -5.11900932	      1.01824298	    -65.19041708	      3.25949389	     -7.47685605	      2.36760780	     -2.80769439	      8.15197563	      4.36559299
      1.03416667	      2.03138969	     -4.06260603	     -1.06314073	     -0.24538186	      1.00906115	      0.34331891	     -1.57024542	     10.14649885	      2.15981637	    -11.05990236	      7.41261074	    -10.19106184	     -2.38753682	     24.52356960	     -5.05665733	      1.02938597	    -64.43531347	      3.52679059	     -7.18602702	      2.33787964	     -2.89244261	      8.11095935	      4.59104879
      1.03833333	      2.02205962	     -4.00804056	     -1.22983724	     -0.24084196	      1.00905585	      0.34349271	     -2.02383262	     10.05828408	      2.30639833	    -10.74744897	      7.46553007	    -10.03441547	     -2.32649659	     24.92122004	     -4.97945884	      1.02612347	    -63.63118871	      3.76852155	     -6.92029688	      2.31560614	     -2.94162037	      8.04918458	      4.75477091
      1.04250000	      1.98596213	     -3.95638811	     -1.39756774	     -0.23631786	      1.00896339	      0.34365993	     -2.43494444	      9.97222499	      2.45951279	    -10.46113704	      7.52151582	     -9.88060341	     -2.28261231	     25.33546848	     -4.90589335	      1.02664344	    -62.79592881	      3.99671295	     -6.67001440	      2.30510109	     -2.96781172	      7.99259015	      4.87589705
      1.04666667	      1.98409161	     -3.91712202	     -1.54685722	     -0.23177986	      1.00888914	      0.34380220	     -2.88866354	      9.89655280	      2.59861198	    -10.16089599	      7.58248749	     -9.72421081	     -2.23998398	     25.69660601	     -4.84309760	      1.04038627	    -61.92248863	      4.22208213	     -6.41529673	      2.29829116	     -3.02927017	      7.94833578	      5.01695143
      1.05083333	      1.98740724	     -3.89948414	     -1.67395185	     -0.22723837	      1.00875444	      0.34392397	     -3.34750433	      9.84332695	      2.70963297	     -9.85758168	      7.65398236	     -9.57083704	     -2.17540717	     26.04656467	     -4.80045324	      1.07474626	    -61.02897434	      4.44009344	     -6.16134950	      2.28759224	     -3.09600460	      7.92819287	      5.20735568
      1.05500000	      1.94633619	     -3.85744833	     -1.82474367	     -0.22270236	      1.00854581	      0.34405864	     -3.73717325	      9.76147580	      2.84410904	     -9.59996912	      7.72936782	     -9.42629487	     -2.13698533	     26.41673760	     -4.74143131	      1.07934343	    -60.08187555	      4.62748806	     -5.95980980	      2.28475571	     -3.10784252	      7.88006124	      5.30687181
      1.05916667	      1.95899369	     -3.83242551	     -1.95316714	     -0.21815285	      1.00837497	      0.34417038	     -4.19224776	      9.69476767	      2.95897937	     -9.32455088	      7.81217967	     -9.26726897	     -2.09575431	     26.71277154	     -4.69721942	      1.09792016	    -59.10010150	      4.82001278	     -5.74686583	      2.28347096	     -3.18418835	      7.84697381	      5.44032210
      1.06333333	      1.96263878	     -3.81598720	     -2.07360358	     -0.21360184	      1.00813692	      0.34427140	     -4.63116682	      9.63641421	      3.06103414	     -9.06112474	      7.90319881	     -9.11164049	     -2.05156378	     27.00627692	     -4.66433266	      1.11762001	    -58.09033710	      4.99977137	     -5.56174113	      2.28236610	     -3.24736580	      7.82254448	      5.58187307
